<svg xmlns="http://www.w3.org/2000/svg" version="1.1" viewBox="-5.0 -10.0 110.0 135.0">
 <g>
  <path d="m90.68 48.086c-0.10156-0.44141-0.17578-0.89063-0.21875-1.3438-0.29297-2.4688-0.83984-4.9062-1.625-7.2695 0.76172-1.0039 1.5938-1.957 2.2852-3.0117h-0.003906c4.6094-6.8164 6.8906-14.945 6.5-23.164-0.078126-2.6328-0.58594-5.2344-1.5078-7.6992-0.47266-1.3242-1.3008-2.4922-2.3945-3.375-1.8867-1.1836-4.1016-1.7305-6.3242-1.5703-2.9648 0.058594-5.9062 0.52734-8.7461 1.3867-4.5703 1.3828-8.7578 3.8164-12.219 7.1094-1.2461-0.19922-2.4648-0.55078-3.7109-0.75781-3.6992-0.63672-7.4453-0.98438-11.203-1.0391-2.0508-0.003906-4.0312-0.75-5.5742-2.0977-0.80859-0.87109-1.668-1.6914-2.5742-2.4609-0.78516-0.53516-1.8398-0.42969-2.5 0.25391-0.46484 0.71094-0.66797 1.5625-0.57422 2.4102-0.12891-0.003906-0.25391-0.042969-0.36328-0.11328-0.76562-0.40234-1.5742-0.71094-2.4141-0.91797-0.60547-0.16797-1.25-0.125-1.8281 0.125-0.49219 0.25-0.82031 0.74219-0.85938 1.293-0.039063 1.0977 0.1875 2.1875 0.66016 3.1797 0.57031 1.4766 1.3125 2.8789 1.9922 4.3047-1.0195-1.293-2.1211-2.5117-3.2969-3.6602-5.1445-5.0664-11.875-8.207-19.062-8.8945-2.5117-0.35156-5.0703-0.11328-7.4727 0.69531-1.8047 0.84766-3.1797 2.3984-3.8047 4.2891-1.2578 3.6211-1.75 7.4609-1.4531 11.281 0.34766 8.2344 3.4375 16.121 8.7812 22.398-0.85156 2.8047-1.418 5.6836-1.6875 8.6016-2.8086 2.3477-4.8516 5.4766-5.8672 8.9922-0.75781 2.7227-0.85156 5.5898-0.27734 8.3555 0.59766 2.8008 1.8242 5.4258 3.5898 7.6797 1.4727 1.8984 3.2148 3.5742 5.1719 4.9727 1.7852 1.2891 3.6914 2.3984 5.6953 3.3086 1.2578 2.7773 2.9531 5.3359 5.0273 7.5742 3.3672 3.5859 7.5625 6.293 12.215 7.8945 7.6875 2.6797 15.949 3.25 23.93 1.6523 3.5117-0.65625 6.9141-1.8086 10.102-3.418 2.7812-1.4219 5.3164-3.2734 7.5078-5.4961 2.3633-2.3672 4.2891-5.1367 5.6875-8.1758 4.1953-1.8242 7.8984-4.6094 10.816-8.1289 2.0469-2.5703 3.3906-5.6289 3.8945-8.875 0.3125-2.0977 0.24609-4.2383-0.19531-6.3164-0.88281-3.9023-3.0273-7.4062-6.0977-9.9727zm-30.844-5.7344c0.29297-1.1523 1.0938-2.1055 2.1797-2.5977 0.63281-0.29297 1.3047-0.48438 1.9961-0.56641 1.5703-0.19141 3.1641 0.070312 4.5898 0.75781 1.1406 0.48438 1.9805 1.4922 2.25 2.7031 0.050782 1.0938-0.48828 2.1289-1.4141 2.7188-1.4453 1-3.1797 1.5-4.9375 1.418-1.4141-0.003906-2.7773-0.53906-3.8203-1.5-0.74609-0.77734-1.0625-1.875-0.84375-2.9336zm-30.082-1.0312c0.92969-1.1211 2.2422-1.8594 3.6836-2.0664 1.7656-0.40234 3.625-0.09375 5.1641 0.86328 0.72266 0.49219 1.2578 1.2148 1.5234 2.0469 0.27734 1.0078 0.058594 2.0859-0.59375 2.8984-0.89844 0.98438-2.1328 1.5898-3.4609 1.6953-1.6289 0.15625-3.2695-0.18359-4.707-0.96875-0.88672-0.44922-1.5859-1.1953-1.9805-2.1094-0.24219-0.80078-0.10547-1.6719 0.37109-2.3594zm59.391 29.352h0.003907c-0.59375 2.1289-1.7969 4.0391-3.4688 5.4844-2.707 2.332-5.8594 4.082-9.2695 5.1406-4.3711 1.375-8.8906 2.2188-13.465 2.5156-0.19141 0.015625-0.37109 0.089844-0.51562 0.21875-1.3164 1.1094-2.7891 2.0156-4.375 2.6914-0.25 0.12891-0.51563 0.21875-0.79688 0.26172l-0.03125 0.09375h0.003907c-2.3711 0.85547-4.8711 1.2891-7.3867 1.293-2.332-0.035156-4.6367-0.46094-6.8242-1.2656-1.4961-0.5625-2.918-1.3008-4.2383-2.1992-0.48047-0.32031-0.91406-0.70703-1.4023-1.0156-0.59375-0.097656-1.1953-0.16016-1.8008-0.18359-5.4688-0.46875-10.824-1.832-15.855-4.0312-2.543-1.1445-4.8164-2.8125-6.668-4.8945-1.3516-1.5508-2.2031-3.4688-2.457-5.5078-0.22656-2.1992 0.20703-4.418 1.2461-6.3711 1.2852-2.3516 2.8906-4.5117 4.7734-6.418 1.5352-1.6445 3.2148-3.1523 5.0156-4.5039 1.293-1.0117 2.7812-1.75 4.375-2.1719 1.9766-0.48828 4.0664-0.24219 5.8789 0.6875l0.074219 0.20703c-1.6289 0.30469-3.1211 1.1211-4.2539 2.332-1.6445 1.8242-2.793 4.0391-3.3359 6.4336-0.72656 2.8633-0.89062 5.8438-0.48047 8.7656 0.30859 2.5273 1.2461 4.9375 2.7266 7.0039 1.8594 2.5469 4.5977 4.3164 7.6836 4.9609-2.1836-4.1602-2.0781-9.1484 0.28906-13.211 0.64453-1.1094 1.4648-2.1133 2.4258-2.9688 1.0156-0.83984 1.8789-1.8477 2.5547-2.9805 0.55469-1.0234 1.043-2.0859 1.4492-3.1797 0.83203-1.8008 2.0625-3.3867 3.5977-4.6445 1.3008-1.0898 2.8945-1.7695 4.5781-1.957 2.0742-0.19531 4.1445 0.39063 5.8086 1.6406 1.8359 1.3672 3.2773 3.1992 4.168 5.3086 0.42578 1.1289 0.94531 2.2148 1.5586 3.25 0.72266 1.0898 1.6094 2.0664 2.625 2.8945 4.2188 4.1914 5.1445 10.68 2.2656 15.883 2.082-0.39844 4.0352-1.3125 5.6797-2.6523 1.8516-1.5469 3.2539-3.5625 4.0547-5.8359 0.74219-2.168 1.1016-4.4453 1.0664-6.7344-0.011719-2.7578-0.53516-5.4922-1.5469-8.0586-0.78516-2.1133-2.207-3.9297-4.0664-5.2031-1.4766-0.97656-3.2617-1.3672-5.0078-1.0898 0.71875-0.33203 1.5352 0 2.2578-0.20703v0.003906c2.3516-1.1914 5.1211-1.2422 7.5195-0.14062 2.1641 1.0703 4.1367 2.4883 5.8359 4.2031 1.4805 1.3945 2.8672 2.8828 4.1523 4.4609 1.1602 1.3906 2.1289 2.9258 2.8789 4.5742 1 2.2344 1.2461 4.7305 0.70313 7.1172z"/>
  <path d="m60.426 74c-0.19922 2.2344-1.4297 4.2539-3.3203 5.4609-2.043 1.2891-4.6445 1.2969-6.6992 0.027343-0.15234-0.074219-0.33203-0.30859-0.49609-0.12109h0.003906c-1.4414 1.0156-3.2578 1.3398-4.9609 0.88281-2.8867-0.85938-4.9648-3.375-5.2695-6.3711 0-0.28516 0.125-0.5625 0.34766-0.74609 0.22266-0.18359 0.51562-0.26172 0.80078-0.20703 0.44531 0.097657 0.76562 0.49219 0.76953 0.94922 0.30859 2.3281 2.0703 4.1953 4.375 4.6406 1.1055 0.16797 2.2305-0.18359 3.043-0.95703 0.0625-0.74219 0.070313-1.4883 0.027344-2.2305-0.89062-0.27734-1.7305-0.6875-2.4961-1.2227-1.2891-0.84375-2.3906-1.9453-3.2266-3.2422-0.34766-0.45703-0.48828-1.0391-0.38281-1.6055 0.35938-1.1133 1.2148-1.9961 2.3125-2.3906 1.9102-0.52344 3.8984-0.70313 5.8672-0.52344 1.8242-0.20312 3.6562 0.28906 5.1289 1.3828 0.83203 0.63281 1.168 1.7266 0.83594 2.7148-0.875 1.5977-2.1562 2.9336-3.7148 3.875-0.71875 0.46094-1.5039 0.8125-2.3242 1.0508 0.003906 0.62109 0.015625 1.2383-0.027344 1.8594-0.050781 0.17578 0.10547 0.30078 0.21484 0.41406 0.97266 0.80859 2.2773 1.0977 3.5 0.77734 2.1094-0.64062 3.6172-2.4922 3.8164-4.6836 0.042969-0.47266 0.45312-0.83203 0.92969-0.80859 0.26953 0.015625 0.51953 0.13672 0.69922 0.33594 0.17578 0.20312 0.26562 0.46875 0.24609 0.73828z"/>
 </g>
<text x="0.0" y="117.5" font-size="5.0" font-weight="bold" font-family="Arbeit Regular, Helvetica, Arial-Unicode, Arial, Sans-serif" fill="#000000">Created by visual language</text><text x="0.0" y="122.5" font-size="5.0" font-weight="bold" font-family="Arbeit Regular, Helvetica, Arial-Unicode, Arial, Sans-serif" fill="#000000">from Noun Project</text></svg>